<?xml version="1.0" encoding="UTF-8" standalone="no"?>
<svg
   xmlns:dc="http://purl.org/dc/elements/1.1/"
   xmlns:cc="http://creativecommons.org/ns#"
   xmlns:rdf="http://www.w3.org/1999/02/22-rdf-syntax-ns#"
   xmlns:svg="http://www.w3.org/2000/svg"
   xmlns="http://www.w3.org/2000/svg"
   xmlns:sodipodi="http://sodipodi.sourceforge.net/DTD/sodipodi-0.dtd"
   xmlns:inkscape="http://www.inkscape.org/namespaces/inkscape"
   xml:space="preserve"
   width="350"
   height="120"
   viewBox="0 0 393.25843 400.00001"
   color-interpolation-filters="sRGB"
   id="root"
   sodipodi:version="0.32"
   inkscape:version="0.48.1 "
   sodipodi:docname="Faber-Castell.svg"
   inkscape:output_extension="org.inkscape.output.svg.inkscape"
   version="1.0"><metadata
   id="metadata112"><rdf:RDF><cc:Work
       rdf:about=""><dc:format>image/svg+xml</dc:format><dc:type
         rdf:resource="http://purl.org/dc/dcmitype/StillImage" /></cc:Work></rdf:RDF></metadata><sodipodi:namedview
   inkscape:window-height="746"
   inkscape:window-width="1024"
   inkscape:pageshadow="2"
   inkscape:pageopacity="0.0"
   guidetolerance="10.0"
   gridtolerance="10.0"
   objecttolerance="10.0"
   borderopacity="1.0"
   bordercolor="#666666"
   pagecolor="#ffffff"
   id="base"
   width="178px"
   height="60px"
   units="px"
   inkscape:zoom="2"
   inkscape:cx="175.7587"
   inkscape:cy="75.5"
   inkscape:window-x="-4"
   inkscape:window-y="-4"
   inkscape:current-layer="root"
   showgrid="false"
   inkscape:window-maximized="0" />
 Converted with TEXTCAFE (tm) http://www.texterity.com 
  <title
   id="title3">12.eps -- Page 1</title>
  <defs
   id="defs5">
    <style
   type="text/css"
   id="style7">

clipPath{shape-rendering:crispEdges}
image{shape-rendering:crispEdges}

    </style>
    <clipPath
   id="id2">
      <rect
   width="200"
   height="200"
   y="0"
   x="0"
   id="rect10" />
    </clipPath>
  </defs>
  <defs
   id="defs12" />
  
<g
   id="g2210"
   transform="matrix(6.1546836,0,0,6.1546836,-394.01028,-437.08679)">
    <g
   transform="matrix(1,0,0,-1,0,200)"
   clip-path="url(#id2)"
   id="g2212">
      <g
   transform="scale(0.4,0.4)"
   id="g2214">
        <path
   d="m 257.539,205.027 c -1.078,-0.664 -2.16,-1.254 -3.238,-1.843 -1.387,-0.664 -6.863,-3.024 -12.418,-3.024 -5.09,0 -8.793,1.918 -10.414,2.875 -5.938,3.688 -8.25,9.582 -9.176,16.074 -0.387,2.727 -0.387,5.528 -0.387,6.411 0,10.398 3.164,16.148 6.481,19.613 1.847,1.769 5.859,5.308 12.801,5.308 3.933,0 9.195,-0.668 12.667,-2.363 0.383,-0.219 2.04,-1.176 2.965,-1.84 l 0.383,-4.57 1.469,0 c 0,1.031 -0.078,2.062 -0.078,3.098 0,2.136 0.078,4.273 0.078,6.484 l -1.824,0 c -2.934,0 -3.782,0.297 -6.711,0.664 -3.473,0.441 -5.399,0.441 -7.02,0.441 -12.726,0 -19.051,-5.968 -22.058,-10.023 -4.938,-6.785 -5.168,-14.379 -5.168,-17.105 0,-3.024 0.386,-14.821 9.41,-22.043 6.094,-4.942 12.492,-5.09 15.347,-5.09 8.485,0 13.883,3.172 16.739,4.793 l 0.152,2.14"
   id="path2216"
   style="fill:#061120;fill-rule:evenodd;stroke:none"
   inkscape:connector-curvature="0" />
        <path
   d="m 75.625,213.43 c -4.8008,-0.051 -9.0703,-0.051 -13.8711,-0.051 0.8711,2.328 1.9922,4.551 2.9922,6.773 1.6836,3.59 2.8125,5.922 4.4336,9.512 0.9961,-2.629 1.832,-4.004 2.7695,-6.629 1.2461,-3.234 2.4922,-6.371 3.6758,-9.605 z M 60.6914,199.504 c -1.4961,0.051 -2.9297,0.152 -4.4258,0.254 1.0586,3.031 2.2461,6.293 3.5547,9.273 0.4375,0.961 0.9336,1.922 1.3711,2.883 5.2383,0.152 9.8828,0.203 15.0586,0 0.75,-2.023 1.5586,-3.992 2.3086,-5.965 0.7461,-1.972 1.1875,-4.23 1.8711,-6.199 -1.4961,-0.102 -2.3984,-0.203 -3.8945,-0.254 l 0,-1.211 c 4.4882,0.098 9.039,0.149 13.5312,0 l 0,1.211 c -1.1875,0.051 -2.3086,0.102 -3.4922,0.203 -4.4922,8.645 -8.0469,17.774 -11.414,26.774 -1.0625,2.879 -2.1836,5.711 -2.9961,8.59 l -2.4297,0 c -0.375,-1.012 -0.75,-1.969 -1.1836,-2.93 -1,-2.328 -2.1836,-4.653 -3.3047,-6.977 -1.1875,-2.476 -2.4336,-4.953 -3.6797,-7.429 -1.2461,-2.528 -2.5586,-4.954 -3.8672,-7.43 -1.5586,-2.981 -3.1797,-5.914 -4.9258,-8.848 -0.3125,-0.504 -0.625,-1.238 -0.9961,-1.742 -1.375,-0.102 -2.6835,-0.152 -4.0546,-0.203 l -0.0625,-1.215 c 4.3632,0.156 8.6679,0.156 13.0312,0 l 0,1.215"
   id="path2218"
   style="fill:#061120;fill-rule:evenodd;stroke:none"
   inkscape:connector-curvature="0" />
        <path
   d="m 286.938,213.711 c -4.801,-0.051 -9.075,-0.051 -13.875,-0.051 0.875,2.328 1.996,4.551 2.996,6.774 1.683,3.589 2.808,5.921 4.429,9.511 1,-2.629 1.836,-4 2.77,-6.629 1.246,-3.234 2.496,-6.367 3.68,-9.605 z m -14.934,-13.922 c -1.496,0.047 -2.93,0.149 -4.426,0.25 1.059,3.031 2.242,6.293 3.551,9.277 0.437,0.961 0.937,1.918 1.375,2.879 5.238,0.153 9.883,0.203 15.059,0 0.746,-2.019 1.558,-3.992 2.304,-5.965 0.75,-1.968 1.188,-4.226 1.875,-6.199 -1.496,-0.101 -2.402,-0.203 -3.898,-0.254 l 0,-1.211 c 4.492,0.102 9.043,0.153 13.531,0 l 0,1.211 c -1.184,0.051 -2.305,0.102 -3.492,0.203 -4.488,8.645 -8.047,17.774 -11.414,26.774 -1.059,2.879 -2.18,5.711 -2.992,8.59 l -2.434,0 c -0.371,-1.008 -0.746,-1.969 -1.184,-2.93 -0.996,-2.324 -2.183,-4.648 -3.304,-6.976 -1.184,-2.477 -2.43,-4.954 -3.68,-7.43 -1.246,-2.528 -2.555,-4.953 -3.863,-7.43 -1.559,-2.98 -3.18,-5.914 -4.926,-8.844 -0.313,-0.507 -0.625,-1.238 -1,-1.746 -1.371,-0.101 -2.68,-0.152 -4.051,-0.199 l -0.062,-1.215 c 4.363,0.153 8.668,0.153 13.031,0 l 0,1.215"
   id="path2220"
   style="fill:#061120;fill-rule:evenodd;stroke:none"
   inkscape:connector-curvature="0" />
        <path
   d="m 395.59,205.004 c -0.059,-1.336 -0.121,-3.031 -0.422,-3.391 -0.18,-0.207 -0.664,-0.308 -1.449,-0.465 -3.922,-0.82 -9.352,-1.078 -9.715,-1.078 -1.266,-0.05 -2.535,0 -3.742,0 -0.18,1.184 -0.301,2.313 -0.36,3.493 -0.062,1.492 -0.062,2.929 -0.121,4.417 0,2.723 -0.023,5.02 0.094,7.743 3.684,0.05 5.516,0.121 6.785,-0.086 0.965,-0.157 2.352,-0.567 2.473,-0.617 0.363,-0.207 0.965,-0.668 0.965,-1.028 0.062,-0.82 0.121,-1.594 0.179,-2.414 l 1.391,0.051 c 0,1.387 -0.063,2.773 -0.063,4.16 0,1.852 0.063,3.699 0.184,5.602 l -1.328,0 c 0,-0.411 -0.121,-2.672 -0.484,-3.082 -0.18,-0.309 -0.786,-0.36 -0.907,-0.411 -3.074,-0.515 -5.957,-0.347 -9.093,-0.296 0.058,1.953 -0.016,3.632 0.046,5.586 0.059,3.39 0,6.832 0.301,10.171 0.903,0.102 1.809,0.102 2.715,0.102 4.766,0 7.797,-0.719 9.242,-1.027 1.934,-0.461 1.871,-1.664 1.992,-4.028 l 1.27,0 c 0,1.903 0,4.492 0.059,6.391 -2.715,-0.051 -5.02,-0.051 -7.735,-0.102 -3.14,0 -6.34,-0.05 -9.476,-0.05 -2.715,0 -5.371,0.05 -7.969,0.152 l -0.059,-1.184 c 1.328,-0.101 3.098,-0.152 4.426,-0.254 0.242,-2.207 0.301,-4.418 0.363,-6.574 0.059,-2.722 0.059,-5.394 0.059,-8.066 0,-2.93 -0.059,-5.856 -0.121,-8.735 -0.059,-2.515 0,-5.082 -0.18,-7.55 0,-0.871 -0.121,-1.696 -0.242,-2.567 -1.57,0 -3.641,-0.054 -5.211,-0.105 l 0,-1.231 c 0.363,0 0.785,0 1.148,0.051 4.043,0.102 8.028,0.102 12.071,0.102 l 3.742,0 c 1.809,0.05 3.621,0.05 5.43,0.05 1.691,-0.05 3.379,-0.101 5.011,-0.203 0.059,2.157 0,4.317 0.118,6.473 l -1.387,0"
   id="path2222"
   style="fill:#061120;fill-rule:evenodd;stroke:none"
   inkscape:connector-curvature="0" />
        <path
   d="m 427.457,205.41 c -0.062,-1.133 -0.121,-2.648 -0.184,-3.785 -1.437,-0.359 -2.832,-0.617 -4.332,-0.824 -5.16,-0.672 -7.437,-0.621 -9.656,-0.621 -0.18,2.066 -0.301,3.863 -0.418,5.925 -0.062,2.118 -0.062,4.18 -0.062,6.293 l 0,7.016 c 0,3.149 0,6.293 0.179,9.387 0.121,1.551 0.243,3.047 0.422,4.539 1.438,0.156 2.938,0.312 4.379,0.465 l 0,1.187 c -1.742,-0.051 -4.68,-0.101 -6.422,-0.101 -2.758,0 -5.574,0 -8.273,0.101 l -0.063,-1.187 c 1.563,-0.153 3.059,-0.309 4.621,-0.41 0.36,-4.024 0.707,-8.102 0.707,-12.122 0,-3.714 -0.062,-7.378 -0.062,-11.089 -0.117,-5.782 -0.059,-6.676 -0.656,-9.977 -1.5,-0.051 -3.348,-0.102 -4.848,-0.102 l -0.059,-1.531 c 3.899,0.051 7.797,0 11.633,0 4.918,-0.051 9.778,0.051 14.633,0 0,0.93 -0.058,1.86 -0.058,2.785 -0.059,1.188 0,2.918 0,4.051 l -1.481,0"
   id="path2224"
   style="fill:#061120;fill-rule:evenodd;stroke:none"
   inkscape:connector-curvature="0" />
        <path
   d="m 459.086,205.41 c -0.059,-1.133 -0.121,-2.648 -0.18,-3.785 -1.437,-0.359 -2.836,-0.617 -4.332,-0.824 -5.16,-0.672 -7.437,-0.621 -9.656,-0.621 -0.18,2.066 -0.301,3.863 -0.422,5.925 -0.058,2.118 -0.058,4.18 -0.058,6.293 l 0,7.016 c 0,3.149 0,6.293 0.179,9.387 0.121,1.551 0.238,3.047 0.422,4.539 1.438,0.156 2.938,0.312 4.375,0.465 l 0,1.187 c -1.738,-0.051 -4.676,-0.101 -6.418,-0.101 -2.758,0 -5.578,0 -8.277,0.101 l -0.059,-1.187 c 1.559,-0.153 3.059,-0.309 4.617,-0.41 0.36,-4.024 0.707,-8.102 0.707,-12.122 0,-3.714 -0.058,-7.378 -0.058,-11.089 -0.121,-5.782 -0.059,-6.676 -0.66,-9.977 -1.5,-0.051 -3.344,-0.102 -4.844,-0.102 l -0.063,-1.531 c 3.899,0.051 7.797,0 11.637,0 4.918,-0.051 9.777,0.051 14.633,0 0,0.93 -0.059,1.86 -0.059,2.785 -0.058,1.188 0,2.918 0,4.051 l -1.484,0"
   id="path2226"
   style="fill:#061120;fill-rule:evenodd;stroke:none"
   inkscape:connector-curvature="0" />
        <path
   d="m 94.2813,198.156 c 1.7929,0 3.5898,0.051 5.3828,0.051 1.4879,0 3.0349,0 4.5199,-0.051 1.488,-0.051 2.91,-0.152 4.394,-0.152 1.797,0 5.758,-0.055 9.844,2.312 1.301,0.77 2.101,1.543 2.476,1.954 1.36,1.644 2.04,3.91 2.04,5.863 0,2.16 -0.864,3.805 -1.297,4.578 -1.055,1.543 -2.786,3.137 -7.305,3.855 -1.055,0.157 -2.106,0.258 -3.156,0.36 l -0.063,0.207 c 0.496,0.051 0.633,0.152 1.129,0.258 1.734,0.41 2.973,0.976 3.59,1.285 1.672,0.875 4.828,2.879 4.828,7.304 0,2.157 -0.68,3.649 -1.113,4.473 -0.184,0.36 -0.805,1.387 -1.918,2.16 -2.785,2.11 -6.578,2.004 -7.445,2.004 -1.547,0 -3.094,-0.101 -4.641,-0.152 -1.918,-0.102 -3.902,-0.156 -5.8204,-0.156 -1.8555,0 -3.6524,0.054 -5.4453,0.156 l -0.125,-1.184 c 1.4843,-0.051 3.3164,-0.152 4.8007,-0.308 0.25,-4.063 0.25,-8.176 0.25,-12.239 0,-3.859 0,-7.714 -0.0625,-11.519 0,-3.242 0,-6.43 -0.3711,-9.617 -1.4257,-0.106 -3.1328,-0.157 -4.4921,-0.207 l 0,-1.235 z m 9.6717,34.817 c 1.672,0.257 3.004,0.168 4.735,0.168 2.23,0 0.972,-0.012 1.902,-0.321 1.113,-0.465 1.98,-1.183 2.289,-1.492 2.23,-2.109 2.414,-4.629 2.414,-5.555 -0.063,-3.343 -1.855,-6.582 -5.816,-7.867 -2.231,-0.672 -2.528,-0.465 -3.149,-0.465 -0.863,0 -1.695,-0.156 -2.625,-0.101 -0.062,1.492 -0.125,2.93 -0.125,4.422 0,0.926 0.063,1.902 0.063,2.828 0,1.699 0,3.394 0.062,5.09 0.063,1.082 0.125,2.16 0.25,3.293 z m -0.312,-16.918 c 1.3,0.101 2.664,0.152 4.023,0.152 5.324,0 6.387,-1.336 7.871,-2.93 1.238,-1.339 1.735,-3.242 1.735,-4.937 0,-0.824 -0.125,-6.688 -5.633,-8.488 -1.239,-0.411 -0.789,-0.348 -3.637,-0.348 -1.98,0 -3.348,0.18 -4.031,0.285 -0.184,2.262 -0.328,4.281 -0.328,6.543 -0.063,3.242 -0.063,6.481 0,9.723"
   id="path2228"
   style="fill:#061120;fill-rule:evenodd;stroke:none"
   inkscape:connector-curvature="0" />
        <path
   d="m 198.359,199.703 c -1.078,0.051 -2.16,0.102 -3.175,0.152 -0.696,0.567 -1.395,1.129 -2.032,1.696 -1.777,1.64 -3.363,3.332 -5.078,5.023 -1.394,1.383 -2.164,2.742 -3.562,4.125 -1.27,1.332 -2.539,2.614 -3.809,3.949 -0.633,0.719 -1.203,1.383 -1.84,2.051 0.446,0.051 1.278,0.285 2.739,0.645 1.523,0.41 2.414,0.551 3.75,1.269 1.777,0.977 5.265,3.129 5.265,7.742 0.067,2.106 -0.762,3.59 -1.269,4.309 -0.254,0.461 -1.024,1.613 -2.227,2.383 -2.922,1.848 -7.172,1.781 -7.805,1.781 -1.906,0 -3.746,-0.101 -5.648,-0.152 -3.492,-0.051 -6.855,-0.051 -10.348,0 l -0.062,-1.18 c 1.523,-0.101 3.047,-0.258 4.57,-0.359 0.188,-3.59 0.188,-7.078 0.188,-10.563 0,-3.898 0,-7.746 -0.063,-11.59 l 0,-4.82 c -0.062,-2.101 -0.191,-4.207 -0.508,-6.309 -1.461,-0.05 -2.984,-0.101 -4.441,-0.152 l -0.066,-1.23 c 1.714,0.05 3.429,0.05 5.207,0 2.855,0 6.425,0.05 9.343,0 l 0.067,1.23 c -1.461,0.051 -2.86,0.102 -4.317,0.102 -0.254,2.207 -0.445,4.461 -0.574,6.664 -0.062,2.054 -0.062,4.105 -0.062,6.105 0,1.434 -0.063,2.871 -0.125,4.309 l 0.113,-0.106 c 3.172,-2.871 5.723,-5.707 8.707,-8.785 2.98,-3.023 5.773,-6.101 8.379,-9.332 2.664,0.102 6.015,-0.137 8.746,-0.187 l -0.063,1.23 z m -24.902,33.344 c 1.715,0.152 1.496,0.203 3.145,0.203 1.906,0 2.855,0.039 3.746,-0.164 2.156,-0.566 5.14,-2.309 5.14,-6.617 0,-2 -0.695,-4.41 -2.41,-5.946 -1.015,-0.925 -2.351,-1.386 -2.859,-1.589 -3.809,-1.438 -6.317,-1.129 -7.524,-1.079 0.063,2.153 0.063,4.258 0.129,6.411 0.125,3.027 0.379,5.804 0.633,8.781"
   id="path2230"
   style="fill:#061120;fill-rule:evenodd;stroke:none"
   inkscape:connector-curvature="0" />
        <path
   d="m 37.9609,199.914 c -1.8906,0.074 -3.7812,0.149 -5.6679,0.149 -0.2266,3.597 -0.3008,7.269 -0.3789,10.867 0,4.187 0,8.375 -0.0743,12.558 0.6016,0.075 1.2071,0.075 1.8125,0.075 4.3086,0 8.9922,-0.809 10.125,-1.102 0.2266,-0.074 1.211,-0.219 1.6641,-0.586 0.832,-0.734 0.7539,-2.645 0.7539,-4.848 l 1.8125,-0.074 c -0.0742,2.129 -0.1484,4.113 -0.1484,6.168 0,2.645 0.0742,5.289 0.1484,7.859 l -1.6601,0.075 c -0.1524,-1.985 -0.1524,-3.891 -0.6797,-4.481 -0.4532,-0.441 -1.586,-0.586 -1.7383,-0.586 -4.6094,-1.031 -11.3359,-0.883 -12.0899,-0.808 0,4.109 0,8.297 0.0743,12.41 0.1523,3.523 0.3007,7.051 0.5273,10.574 1.4375,0.074 2.875,0.074 4.2344,0.074 5.4414,0 9.8984,-0.734 11.789,-1.101 0.1485,-0.074 1.2071,-0.293 2.0391,-0.735 0.9063,-0.441 0.9844,-1.172 1.0586,-1.543 0.2266,-0.734 0.3008,-1.171 0.3008,-2.566 l 1.664,0 c -0.0742,2.496 0,5.066 0.0743,7.637 -4.3047,-0.149 -8.461,-0.075 -12.7696,-0.075 -6.5,0 -12.9218,-0.148 -19.4961,0.149 l -0.0742,-1.543 c 1.8125,-0.148 3.6992,-0.367 5.5156,-0.59 0.3008,-3.746 0.375,-7.488 0.375,-11.16 0,-5.512 -0.0742,-10.871 -0.0742,-16.305 -0.0742,-6.832 0,-13.59 -0.6054,-20.273 -1.6602,-0.145 -3.3985,-0.145 -5.0625,-0.219 l 0,-1.762 c 2.4179,0.149 4.8359,0.219 7.332,0.219 3.0195,0 6.1211,-0.07 9.1406,-0.219 l 0.0781,1.762"
   id="path2232"
   style="fill:#061120;fill-rule:evenodd;stroke:none"
   inkscape:connector-curvature="0" />
        <path
   d="m 155.066,204.852 c -0.058,-1.336 -0.121,-3.032 -0.421,-3.391 -0.184,-0.207 -0.665,-0.309 -1.45,-0.465 -3.922,-0.82 -9.351,-1.078 -9.715,-1.078 -1.265,-0.051 -2.535,0 -3.742,0 -0.179,1.184 -0.3,2.312 -0.359,3.492 -0.063,1.492 -0.063,2.93 -0.121,4.418 0,2.723 -0.028,5.02 0.094,7.742 3.683,0.051 5.515,0.118 6.781,-0.086 0.969,-0.152 2.355,-0.566 2.476,-0.617 0.36,-0.207 0.965,-0.668 0.965,-1.027 0.063,-0.824 0.121,-1.594 0.18,-2.414 l 1.391,0.051 c 0,1.386 -0.063,2.773 -0.063,4.16 0,1.851 0.063,3.699 0.184,5.601 l -1.328,0 c 0,-0.414 -0.122,-2.672 -0.485,-3.082 -0.18,-0.308 -0.785,-0.359 -0.902,-0.414 -3.082,-0.512 -5.961,-0.344 -9.102,-0.293 0.063,1.953 -0.011,3.633 0.047,5.586 0.063,3.391 0,6.832 0.305,10.172 0.902,0.102 1.808,0.102 2.715,0.102 4.769,0 7.797,-0.719 9.242,-1.028 1.933,-0.461 1.871,-1.664 1.992,-4.027 l 1.27,0 c 0,1.902 0,4.488 0.058,6.391 -2.715,-0.051 -5.019,-0.051 -7.738,-0.102 -3.137,0 -6.336,-0.051 -9.473,-0.051 -2.715,0 -5.371,0.051 -7.965,0.153 l -0.062,-1.184 c 1.328,-0.102 3.098,-0.152 4.426,-0.254 0.242,-2.211 0.3,-4.418 0.359,-6.578 0.063,-2.719 0.063,-5.391 0.063,-8.063 0,-2.929 -0.063,-5.855 -0.122,-8.734 -0.058,-2.516 0,-5.086 -0.179,-7.551 0,-0.875 -0.121,-1.695 -0.242,-2.566 -1.571,0 -3.641,-0.055 -5.211,-0.106 l 0,-1.23 c 0.363,0 0.785,0 1.148,0.051 4.043,0.101 8.027,0.101 12.07,0.101 l 3.743,0 c 1.808,0.051 3.621,0.051 5.429,0.051 1.692,-0.051 3.379,-0.102 5.012,-0.203 0.059,2.156 0,4.312 0.117,6.473 l -1.387,0"
   id="path2234"
   style="fill:#061120;fill-rule:evenodd;stroke:none"
   inkscape:connector-curvature="0" />
        <path
   d="m 194.492,216.043 c 5.699,0.09 11.399,0 16.953,0 l 0.047,1.594 -6.504,0 c -3.515,-0.032 -7.031,-0.059 -10.496,0 l 0,-1.594"
   id="path2236"
   style="fill:#061120;fill-rule:evenodd;stroke:none"
   inkscape:connector-curvature="0" />
        <path
   d="m 325.715,229.008 c 0.062,1.902 0,3.801 0.125,5.754 -3.406,0.668 -5.051,0.769 -6.754,0.769 -1.895,0 -9.211,0.043 -12.617,-5.301 -1.266,-2.105 -1.391,-3.953 -1.391,-4.828 0,-1.336 0.106,-3.48 2.504,-5.843 0.566,-0.567 1.578,-1.543 3.41,-2.313 1.891,-0.82 3.117,-1.336 5.074,-1.902 3.219,-0.973 6.399,-1.758 8.168,-4.481 0.946,-1.543 1.008,-3.187 1.008,-3.75 0,-3.031 -1.262,-4.468 -2.461,-5.445 -2.019,-1.695 -4.129,-2.465 -6.968,-2.465 -3.223,0 -5.938,0.922 -6.946,1.387 -0.82,0.359 -1.39,0.769 -1.644,0.976 -0.188,1.231 -0.379,2.414 -0.567,3.645 l -1.453,-0.051 c 0.063,-1.078 0.063,-2.156 0.063,-3.289 0,-1.078 -0.063,-2.156 -0.125,-3.234 1.64,-0.41 3.976,-0.824 8.019,-0.824 6.313,0 9.785,1.39 12.059,2.828 3.219,2.054 4.609,4.726 4.609,8.011 0,4.524 -3.535,6.786 -5.176,7.707 -2.148,1.133 -4.484,1.746 -5.242,2.004 -3.347,0.977 -6.769,1.719 -8.66,4.543 -1.012,1.543 -1.074,3.137 -1.074,3.699 0,4.11 2.601,7.043 7.387,7.297 2.71,0.141 5.386,-0.734 6.144,-0.988 0.379,-0.156 0.363,-0.359 0.738,-0.516 0.129,-1.128 0.192,-2.261 0.317,-3.39 l 1.453,0"
   id="path2238"
   style="fill:#061120;fill-rule:evenodd;stroke:none"
   inkscape:connector-curvature="0" />
        <path
   d="m 364.609,228.309 c 0.063,1.894 0.063,4.523 0.121,6.418 -5.257,-0.102 -10.457,-0.36 -15.718,-0.36 -5.137,0 -10.274,0.258 -15.352,0.36 -0.121,-1.895 -0.18,-4.536 -0.242,-6.481 l 1.531,0 c 0.117,1.024 0.239,2.723 0.36,3.75 4.293,0.973 5.82,0.824 11.101,0.824 0.059,-1.636 0.363,-2.703 0.363,-4.34 0,-2.71 -0.121,-5.476 -0.121,-8.191 -0.058,-2.609 -0.058,-5.273 -0.058,-7.937 -0.121,-4.145 -0.242,-8.293 -0.543,-12.438 -1.512,0 -3.078,-0.051 -4.59,-0.105 l 0,-1.227 c 1.512,0.051 3.441,0.102 4.953,0.102 2.961,0.05 6.445,0.05 9.406,-0.102 l 0.063,1.227 c -1.449,0.054 -3.063,0.105 -4.516,0.105 -0.121,2.305 -0.242,4.606 -0.242,6.91 0,3.84 0.063,7.731 0.121,11.52 0.063,3.379 0.063,6.707 0.184,10.086 0.058,1.687 0.289,2.703 0.468,4.39 6.118,0 7.485,-0.058 10.93,-0.675 0.059,-1.075 0.18,-2.711 0.242,-3.836 l 1.539,0"
   id="path2240"
   style="fill:#061120;fill-rule:evenodd;stroke:none"
   inkscape:connector-curvature="0" />
        <path
   d="m 227.531,303.133 c 0,0.519 0.399,0.726 0.942,0.726 0.547,0 1.121,-0.164 1.121,-0.683 0,-0.524 -0.574,-1.203 -1.121,-1.203 -0.543,0 -0.942,0.636 -0.942,1.16"
   id="path2242"
   style="fill:#061120;fill-rule:evenodd;stroke:none"
   inkscape:connector-curvature="0" />
        <path
   d="m 219.68,299.871 c 0,0 -1.703,0.067 -1.817,-1.371 -0.097,-1.242 1.282,-1.48 1.282,-1.48 0,0 0.335,-0.02 0.312,-0.321 -0.023,-0.301 -1.324,-2.078 0.492,-2.832 1.723,-0.707 3.727,0.84 4.196,1.18 0.472,0.344 1.527,1.758 2.265,1.805 0.738,0.043 1.352,0.062 1.367,-0.282 0.024,-0.492 -1.254,-0.578 -1.679,-1.457 -0.246,-0.508 -0.137,-1.996 -0.137,-1.996 0,0 -0.395,-0.34 -0.402,-0.512 -0.024,-0.386 0.402,-0.128 0.425,-0.496 0.024,-0.363 -1.367,-1.629 -1.504,-1.949 -0.117,-0.285 -0.222,-1.265 -0.222,-1.265 -0.067,0.257 0.469,-2.227 1.301,-2.27 0.828,-0.047 3.836,1.176 4.082,1.563 0.246,0.386 0.449,1.265 0.179,2.125 -0.269,0.855 -0.515,1.113 -0.492,1.347 0.02,0.238 0.492,1.094 1.434,1.371 0.328,0.098 0.179,0.539 -0.024,0.582 -0.965,0.149 -1.929,0.125 -1.972,0.492 -0.047,0.364 1.523,0.258 1.504,0.665 -0.024,0.406 -1.211,0.793 -1.211,1.48 0,0.277 0.964,0.855 0.964,0.941 0,0.043 -0.785,0.301 -0.832,0.582 -0.132,0.836 -0.156,3.278 -0.336,3.45 -0.179,0.172 -0.964,0.429 -1.031,-0.02 -0.066,-0.449 -0.179,-2.937 -0.676,-3.281 -0.492,-0.344 -2.351,-0.707 -2.98,-1.117 -0.629,-0.407 -1.906,-1.2 -2.559,-1.176 -0.648,0.019 -1.254,0.129 -1.254,0.855 0,0.731 4.372,0.965 4.372,1.289 0,0.321 -4.852,0.461 -5.09,1.176 -0.18,0.539 0.043,0.922 0.043,0.922 z m 7.449,-8.23 c 0,0 0.156,-0.86 0.18,-1.289 0.019,-0.426 -0.18,-1.305 0.605,-1.157 0.785,0.153 0.41,1.262 0.336,1.481 -0.27,0.769 -1.121,0.965 -1.121,0.965"
   id="path2244"
   style="fill:#061120;fill-rule:evenodd;stroke:none"
   inkscape:connector-curvature="0" />
        <path
   d="m 205.504,287.586 18.73,0 c 0,0 0.629,-0.469 0.516,-1.113 -0.379,-0.024 -19.355,0 -19.355,0 0,0 -0.563,0.172 -0.54,0.558 0.024,0.426 0.649,0.555 0.649,0.555"
   id="path2246"
   style="fill:#061120;fill-rule:evenodd;stroke:none"
   inkscape:connector-curvature="0" />
        <path
   d="m 224.527,277.789 0,2.508 c 0,0 0.02,0.558 -0.203,0.945 -0.222,0.387 -1.433,2.078 -1.547,2.164 -0.113,0.086 -0.586,0.215 -0.875,-0.019 -0.293,-0.239 -0.136,-0.602 -0.023,-0.707 0.113,-0.11 0.762,-1.203 0.851,-1.266 0.09,-0.066 -0.042,-0.281 -0.156,-0.281 -0.113,0 -2.847,0.172 -4.351,-0.449 -1.504,-0.621 -1.571,-0.707 -1.907,-0.707 -0.336,0 -0.875,0.398 -2.086,0.472 -0.718,0.043 -1.48,-0.301 -2.175,-0.344 -0.696,-0.042 -2.379,-0.148 -3.051,-0.472 -0.672,-0.32 -1.816,-0.985 -2.578,-1.844 -0.762,-0.855 -1.121,-2.207 -1.707,-2.957 -0.582,-0.754 -1.367,-1.781 -2.086,-2.102 -0.055,-0.027 1.39,-0.152 1.324,-0.621 -0.086,-0.601 0.047,-0.964 -0.605,-2.296 -0.649,-1.329 -1.098,-1.973 -1.547,-2.356 -0.45,-0.387 0.828,-0.129 1.008,-0.047 0.179,0.09 0.562,0.473 0.851,0.344 0.293,-0.129 0,-1.328 -0.156,-1.606 -0.156,-0.277 -0.606,-1.007 -0.606,-1.007 0,0 0.739,-0.368 1.528,-0.301 1.031,0.086 1.527,1.101 1.726,1.738 0.246,0.789 0.449,3.664 0.449,3.664 0,0 1.727,-0.449 2.602,-0.429 0.941,0.023 1.727,0.535 2.039,0.085 0.317,-0.449 -0.492,-2.207 -0.605,-2.613 -0.11,-0.41 -2.129,-5.344 -2.266,-5.66 -0.133,-0.324 -0.109,-0.988 -0.109,-0.988 l 3.656,0 c 0,0 1.32,3.773 2.531,5.316 1.215,1.547 3.051,3.067 3.434,3.024 0.383,-0.043 -0.449,-0.664 -0.449,-0.664 0,0 -1.86,-2.336 -2.446,-3.708 -0.582,-1.375 -1.031,-2.402 -1.031,-4.054 0,-0.043 1.769,0.008 1.769,0.008 0,0 0.454,2.91 0.969,4.257 0.516,1.352 1.481,3.411 1.906,3.778 0.223,0.191 -0.07,0.683 -0.179,0.64 -0.113,-0.043 0.312,0.301 0.426,0.344 0.113,0.043 1.593,0.406 1.503,1.242 -0.089,0.836 -1.347,0.903 -1.55,0.922 -0.2,0.024 -2.242,-0.148 -2.399,1.137 -0.156,1.289 2.199,2.66 2.199,2.66 0,0 2.266,1.676 2.735,1.586 0.226,-0.043 -0.336,-0.602 -0.336,-0.602 0,0 -2.578,-2.55 -2.668,-2.808 -0.09,-0.258 -0.227,-0.598 -0.137,-0.707 0.09,-0.106 0.785,0.258 1.235,0.066 0.449,-0.195 0.582,-0.281 0.785,-0.625 0.203,-0.34 0.785,-1.672 1.886,-1.629 1.098,0.043 1.301,1.051 1.411,1.223 0.113,0.172 2.175,3.367 2.175,3.367 0,0 0.161,0.363 -0.269,0.449 -0.426,0.086 -2.711,-0.472 -3.004,-0.257 -0.293,0.214 -0.137,1.781 -0.156,2.082 -0.024,0.296 -0.27,0.406 -0.676,0.429 -0.32,0.016 -1.164,0.168 -3.945,-1.136 -2.782,-1.309 -3.075,-1.676 -3.77,-1.696 -0.695,-0.023 -1.164,-0.152 -1.277,0.063 -0.114,0.215 -0.137,1.715 0.269,2.34 0.403,0.621 1.196,1.843 2.11,1.433 0.379,-0.168 0.109,-0.512 0.109,-0.512 0,0 -0.918,-1.929 -0.359,-1.929 0.562,0 2.601,0.105 2.601,0.105 0,0 0.43,1.352 0.899,1.782 0.472,0.425 0.922,1.179 2.648,1.05 1.727,-0.129 2.109,-0.582 2.129,-0.75 0.023,-0.172 -0.223,-2.66 0.023,-2.703 0.247,-0.043 3.028,0.258 3.141,0.363 0.113,0.11 0.359,0.43 0.336,0.645 -0.023,0.215 -0.023,0.449 -0.516,0.535 -0.492,0.086 -1.457,0.086 -1.457,0.086 z m -12.113,-4.16 c 0,0 -0.539,-2.656 -0.402,-2.699 0.133,-0.043 1.613,0.148 1.547,0.812 -0.114,1.094 -1.145,1.887 -1.145,1.887 z m 0.828,-4.094 c -0.222,-0.234 -3.051,-7.461 -3.16,-7.652 -0.113,-0.195 0.043,-0.473 0.469,0.34 0.426,0.816 4.847,6.882 5.027,7.097 0.18,0.215 0.426,0.45 0.336,0.602 -0.09,0.148 -0.605,0.234 -1.031,0.105 -0.43,-0.129 -1.414,-0.257 -1.641,-0.492 z m -3.429,8.32 c -0.227,-0.109 -1.887,-0.816 -2.266,-2.039 -0.383,-1.222 -1.168,-3.753 -0.899,-4.222 0.27,-0.473 0.762,-0.406 1.122,-0.11 0.359,0.301 0.785,0.922 0.808,1.352 0.024,0.43 -0.023,1.18 0.223,1.953 0.25,0.77 0.539,1.844 0.765,2.25 0.223,0.406 0.379,0.731 0.247,0.816"
   id="path2248"
   style="fill:#061120;fill-rule:evenodd;stroke:none"
   inkscape:connector-curvature="0" />
        <path
   d="m 226.836,275.195 c 0,0 -0.133,0.407 -0.336,0.43 -0.203,0.02 -0.473,-0.516 -0.473,-0.516 l -1.589,-2.421 c 0,0 -0.157,-0.454 0.042,-0.536 0.204,-0.089 1.438,-0.089 1.797,-0.023 0.356,0.062 1.121,0.129 1.211,0.363 0.09,0.238 -0.652,2.703 -0.652,2.703"
   id="path2250"
   style="fill:#061120;fill-rule:evenodd;stroke:none"
   inkscape:connector-curvature="0" />
        <path
   d="m 226.793,271.391 c 0,0.382 0.301,0.695 0.672,0.695 0.371,0 0.672,-0.313 0.672,-0.695 0,-0.387 -0.301,-0.7 -0.672,-0.7 -0.371,0 -0.672,0.313 -0.672,0.7"
   id="path2252"
   style="fill:#061120;fill-rule:evenodd;stroke:none"
   inkscape:connector-curvature="0" />
        <path
   d="m 238.625,280.828 c 0,0 0.438,0.391 0.953,0.52 0.516,0.129 1.906,0.172 1.906,0.172 l 0.469,0.988 c 0,0 0.137,0.258 0.383,0.258 0.246,0 0.359,-0.817 0.336,-1.118 -0.024,-0.3 0.492,-0.406 0.695,-0.363 0.203,0.043 0.406,0.086 0.449,0.449 0.043,0.364 0.18,0.879 0.18,0.879 0,0 0.289,0.086 0.359,-0.105 0.067,-0.195 0,-1.16 0.426,-1.137 0.426,0.02 1.457,0.008 1.457,0.008 l 0.047,2.992 c 0,0 -0.023,0.238 -0.203,0.387 -0.18,0.148 -1.102,0.066 -1.102,0.066 l -0.671,0.875 c 0,0 -0.379,0.129 -0.493,0.129 -0.113,0 -2.132,0.024 -2.132,0.024 0,0 -0.426,-0.086 -0.493,-0.215 -0.066,-0.129 -0.043,-0.449 0.047,-0.516 0.086,-0.062 0.59,-0.617 0.918,-0.922 0.141,-0.242 0,-0.554 0,-0.554 0,0 -0.875,-0.582 -1.008,-0.559 -0.136,0.019 -0.25,0.172 -0.293,0.535 -0.046,0.363 -0.292,1.715 -0.292,1.715 0,0 0,0.215 -0.11,0.301 -0.113,0.086 -3.836,0.215 -3.836,0.215 0,0 -0.875,-0.153 -1.324,-0.43 -0.449,-0.277 -0.605,-0.516 -0.582,-0.664 0.019,-0.149 0.695,-0.559 0.785,-0.602 0.086,-0.043 3.832,-1.777 4.215,-1.843 0.383,-0.063 0.695,-0.364 0.539,-0.344 -0.156,0.023 -0.582,0.043 -0.672,0.129 -0.09,0.086 -4.195,1.781 -4.308,1.886 -0.114,0.11 -0.918,0.602 -1.098,0.664 -0.18,0.067 -0.496,0.11 -0.899,-0.253 -0.402,-0.368 -0.683,-0.547 -0.628,-0.668 0.089,-0.192 0.277,-0.684 2.187,-2.102 1.859,-1.383 2.57,-1.59 2.57,-1.59 0,0 0.332,-0.019 0.489,0.067 l 0.734,0.726"
   id="path2254"
   style="fill:#061120;fill-rule:evenodd;stroke:none"
   inkscape:connector-curvature="0" />
        <path
   d="m 228.789,278.41 c 0,0 0.672,-0.234 0.875,-0.597 0.199,-0.368 0.449,-3.133 0.918,-3.497 0.473,-0.363 0.922,-0.086 1.078,-0.3 0.156,-0.215 1.235,-0.086 1.235,-0.086 0,0 0.043,0.621 -0.227,0.836 -0.27,0.214 -0.402,0.343 -0.563,0.3 -0.156,-0.043 -0.601,-0.472 -0.785,-0.429 -0.175,0.043 -0.289,0.172 -0.379,0.644 -0.089,0.473 -0.472,3.324 -0.539,3.453 -0.066,0.129 -0.222,0.278 -0.379,0.254 -0.16,-0.019 -0.429,-0.277 -0.585,-0.34 -0.157,-0.066 -0.649,-0.238 -0.649,-0.238 z m 10.453,2.426 c -0.617,-0.191 -1.078,-1.055 -1.324,-1.137 -0.277,-0.097 -0.672,0.02 -0.672,0.02 0,0 -1.258,0.644 -2.582,1.629 -1.324,0.988 -1.906,1.695 -2.039,1.843 -0.137,0.153 -0.359,0.258 -0.449,0.258 -0.09,0 -0.227,-0.105 -0.27,-0.386 -0.047,-0.278 -0.562,-3.665 -0.562,-3.665 0,0 -0.223,-0.214 -0.36,-0.195 -0.132,0.024 -1.14,0.793 -1.3,0.86 -0.157,0.062 -0.426,0.105 -0.559,0.128 -0.137,0.02 -0.875,-0.492 -0.941,-0.367 -0.071,0.133 0.289,0.602 0.605,0.711 0.313,0.106 0.426,0.063 0.449,0.192 0.02,0.128 -1.125,5.468 -1.125,5.468 0,0 -0.109,0.473 -0.312,0.555 -0.203,0.086 -1.84,-0.344 -2.02,-0.469 -0.179,-0.129 -0.199,-0.73 -0.199,-0.73 l -0.539,-0.129 c 0,0 -0.563,-1.844 -0.652,-2.317 -0.09,-0.472 -0.45,-1.242 0.07,-1.328 0.512,-0.086 0.656,0.856 0.984,1.266 0.539,0.664 1.055,0.602 1.055,0.578 0,0 -1.301,-1.457 -1.187,-2.035 0.109,-0.582 1.566,-2.059 1.703,-2.789 0.187,-1.016 1.886,-7.356 1.886,-7.356 0,0 0.157,-0.234 0.379,-0.214 0.223,0.023 1.278,0.796 1.278,0.796 l 0.156,0.985 c 0,0 0.808,-0.516 0.988,-0.43 0.18,0.086 2,1.164 3.477,1.758 1.437,0.582 2.152,0.945 3.008,1.008 0.851,0.066 1.523,0.043 1.57,-0.168 0.043,-0.215 -0.27,-0.883 -1.774,-1.547 -1.504,-0.664 -2.738,-1.008 -2.871,-1.137 -0.133,-0.129 -0.582,-0.707 -0.695,-1.285 -0.113,-0.578 -0.156,-1.605 -0.156,-1.605 0,0 3.363,0.726 5.496,2.097 2.129,1.375 3.633,2.809 3.633,2.809 l 0.179,2.617 -2.847,1.352 c 0,0 -0.45,-0.024 -0.407,0.277 0.047,0.301 0.563,1.93 0.493,2.082 -0.067,0.148 -0.11,0.32 -0.516,0.32 -0.402,0 -0.863,-0.16 -1.051,-0.32 z m -2.828,-4.356 c -0.516,0 -2.691,-0.191 -2.984,-0.32 -0.289,-0.129 -0.535,0.129 -0.266,0.344 0.266,0.215 1.164,1.027 3.047,0.984 1.887,-0.043 3.457,-0.726 3.656,-0.836 0.203,-0.105 0.449,-0.472 0.36,-0.515 -0.09,-0.043 -0.629,-0.106 -0.852,0 -0.223,0.109 -2.445,0.343 -2.961,0.343"
   id="path2256"
   style="fill:#061120;fill-rule:evenodd;stroke:none"
   inkscape:connector-curvature="0" />
        <path
   d="m 231.59,284.672 c 0,0 -0.496,0.355 -1.043,0.07 -0.547,-0.285 -0.82,-3.492 -0.649,-3.992 0.176,-0.5 0.547,-0.734 0.774,-0.758 0.223,-0.027 0.394,-0.012 0.594,1.496 0.199,1.496 0.324,3.184 0.324,3.184"
   id="path2258"
   style="fill:#061120;fill-rule:evenodd;stroke:none"
   inkscape:connector-curvature="0" />
        <path
   d="m 232.383,289.09 c 0,0 -0.074,-0.832 -0.074,-1 0,-0.164 -0.274,-0.262 -0.395,-0.332 -0.125,-0.07 -2.586,-0.403 -2.586,-0.403 0,0 -0.273,0.094 -0.398,-0.07 -0.125,-0.168 -0.227,-0.574 -0.098,-1.238 0.121,-0.641 0.32,-0.996 0.57,-0.949 0.25,0.047 2.164,0.656 2.36,0.761 0.324,0.164 0.547,-0.05 0.547,-0.05 l 0.074,-0.782 0.523,-0.023 c 0,0 1.219,1.187 1.989,1.211 0.769,0.023 25.519,0.187 25.519,0.187 l 0.047,0.192 0.324,0 c 0,0 0.348,-0.524 0.797,-0.5 0.445,0.027 2.211,0.523 2.211,0.808 0,0.407 -1.664,0.832 -2.211,0.809 -0.547,-0.023 -0.723,-0.426 -0.723,-0.426 l -0.32,-0.051 -0.199,0.262 -25.371,0.262 c 0,0 -1.168,0.476 -1.492,0.785 -0.321,0.309 -0.473,0.5 -0.571,0.547 -0.101,0.047 -0.523,0 -0.523,0"
   id="path2260"
   style="fill:#061120;fill-rule:evenodd;stroke:none"
   inkscape:connector-curvature="0" />
        <path
   d="m 246.621,293.863 c 0,0 -0.047,-2.113 -0.273,-2.543 -0.223,-0.425 -1.094,-0.902 -1.567,-0.379 -0.468,0.524 -0.32,0.547 -0.468,0.571 -0.149,0.023 -0.274,0.07 -0.399,-0.094 -0.125,-0.168 -0.25,-0.383 -0.422,-0.383 -0.176,0 -0.621,-0.023 -0.621,-0.023 l 0,-0.332 c 0,0 0.496,-0.641 0.742,-0.739 0.25,-0.093 0.2,-0.402 0.2,-0.402 0,0 -0.594,-0.215 -0.622,-0.547 -0.023,-0.332 0.102,-0.64 -0.097,-0.758 -0.199,-0.121 -1.516,-0.214 -1.989,-0.238 -0.472,-0.023 -2.41,0.047 -2.535,0.117 -0.125,0.075 -0.148,1.141 -0.222,1.239 -0.075,0.093 -0.348,0.234 -0.524,0.093 -0.172,-0.144 -1.168,-1.472 -1.562,-1.449 -0.399,0.024 -1.145,-0.191 -1.321,0.332 -0.171,0.524 0.325,1.332 1.071,1.996 0.746,0.664 2.906,2.375 4.574,2.375 1.664,0 4.445,-0.07 4.445,-0.07 0,0 1.145,1.234 1.293,1.258 0.149,0.023 0.297,-0.024 0.297,-0.024 z m -5.219,-3.066 c 0,0 -0.172,0.215 -1.043,-0.094 -0.867,-0.308 -1.191,-0.476 -1.043,-0.617 0.149,-0.145 0.696,-0.426 0.997,-0.449 0.296,-0.024 0.667,0.281 0.843,0.496 0.172,0.215 0.246,0.664 0.246,0.664"
   id="path2262"
   style="fill:#061120;fill-rule:evenodd;stroke:none"
   inkscape:connector-curvature="0" />
        <path
   d="m 246.25,288.258 c 0.023,0.187 0.051,1.117 -0.125,1.281 -0.172,0.168 -0.547,0.309 -0.945,-0.117 -0.399,-0.43 -0.52,-1.211 -0.422,-1.258 0.101,-0.051 0.496,-0.121 0.746,-0.121 0.25,0 0.719,0.023 0.746,0.215"
   id="path2264"
   style="fill:#061120;fill-rule:evenodd;stroke:none"
   inkscape:connector-curvature="0" />
        <path
   d="m 252.758,292.629 c 0.152,0.047 0.648,0.164 1.441,-0.406 0.797,-0.571 0.821,-0.735 0.696,-0.903 -0.122,-0.164 -1.118,-1.187 -1.118,-1.379 0,-0.187 -0.172,-0.519 0,-0.566 0.176,-0.051 2.661,-1.211 2.911,-1.211 0.246,0 1.167,-0.098 1.39,-0.023 0.223,0.07 0.793,0.304 0.82,0.425 0.024,0.118 -0.05,1.758 -0.05,1.758 0,0 -0.102,0.641 -0.719,1.114 -0.625,0.476 -6.387,5.109 -6.387,5.109 0,0 -0.273,0.402 -0.996,0.332 -0.719,-0.07 -1.613,-0.238 -1.613,-0.238 0,0 -0.199,-1.352 -0.074,-1.399 0.121,-0.051 0.246,-0.308 0.546,-0.406 0.297,-0.094 1.415,-0.141 1.415,-0.523 0,-0.379 -0.223,-0.543 -0.571,-0.782 -0.347,-0.238 -0.621,-0.168 -0.644,-0.5 -0.028,-0.332 0.371,-0.687 0.621,-0.664 0.246,0.024 0.273,0.164 0.621,0.211 0.348,0.051 0.621,0.192 0.742,0 0.125,-0.187 0.102,-0.617 -0.148,-1.019 -0.246,-0.403 -0.594,-0.45 -0.52,-0.664 0.074,-0.215 -0.101,-0.262 0.121,-0.5 0.227,-0.239 0.574,-0.571 0.672,-0.926 0.102,-0.356 0.375,-1.164 0.399,-1.258 0.023,-0.098 1.753,-0.082 1.988,0.047 0.172,0.094 0.222,0.332 0.074,0.402 -0.148,0.07 -2.062,0.879 -2.164,1.235 -0.098,0.359 0.027,0.57 0.176,0.953 0.148,0.379 0.371,0.519 0.371,1.781"
   id="path2266"
   style="fill:#061120;fill-rule:evenodd;stroke:none"
   inkscape:connector-curvature="0" />
        <path
   d="m 248.758,300.656 0,-0.902 9.867,-8.172 c 0,0 0.672,-0.734 0.695,-1.094 0.024,-0.355 0.051,-1.707 0.098,-1.804 0.051,-0.094 0.25,-0.188 0.422,-0.188 0.176,0 1.394,0.234 2.187,1.164 0.797,0.926 1.043,1.707 1.071,1.922 0.023,0.215 0.023,0.594 -0.075,0.664 -0.101,0.074 -1.89,-0.07 -2.289,0.051 -0.394,0.117 -0.668,0.187 -0.82,0.262 -0.148,0.07 -10.582,7.98 -10.582,7.98 l -0.574,0.117"
   id="path2268"
   style="fill:#061120;fill-rule:evenodd;stroke:none"
   inkscape:connector-curvature="0" />
        <path
   d="m 258.797,297.402 c 0,0 0.398,-1.687 -1.442,-1.711 -1.835,-0.023 -1.64,1.45 -1.64,1.45 l 3.082,0.261"
   id="path2270"
   style="fill:#061120;fill-rule:evenodd;stroke:none"
   inkscape:connector-curvature="0" />
        <path
   d="m 263.992,297.852 0,-0.426 c 0,0 -0.398,-0.5 -0.699,-0.711 -0.297,-0.215 -1.141,-0.621 -1.141,-0.621 0,0 0.473,-1.067 0.473,-1.469 0,-0.406 0.051,-1.594 0.051,-1.594 0,0 -0.102,-0.379 -1.047,-0.402 -0.941,-0.024 -1.242,0.309 -1.266,0.426 -0.023,0.121 -0.125,1.379 -0.125,1.379 0,0 -0.222,0.617 -0.422,0.832 -0.199,0.211 -0.371,0.449 -0.421,0.64 -0.051,0.188 0.445,1.282 0.519,1.403 0.074,0.117 0.274,0.285 0.274,0.285 l 3.804,0.258"
   id="path2272"
   style="fill:#061120;fill-rule:evenodd;stroke:none"
   inkscape:connector-curvature="0" />
        <path
   d="m 248.512,300.254 0,0.926 -7.383,5.89 -0.742,-0.023 c 0,0 -0.102,-0.477 0,-0.524 0.097,-0.046 7.453,-6.199 7.601,-6.246 0.149,-0.047 0.524,-0.023 0.524,-0.023"
   id="path2274"
   style="fill:#061120;fill-rule:evenodd;stroke:none"
   inkscape:connector-curvature="0" />
        <path
   d="m 238.371,308.992 c 0,0 -0.023,-0.851 0.301,-1.183 0.32,-0.336 0.82,-0.571 1.266,-0.215 0.449,0.355 0.125,0.781 -0.172,1.066 -0.301,0.285 -1.395,0.332 -1.395,0.332"
   id="path2276"
   style="fill:#061120;fill-rule:evenodd;stroke:none"
   inkscape:connector-curvature="0" />
        <path
   d="m 272.402,297.027 c 0,0 0.895,0.25 1.344,1.43 0.449,1.18 0.598,2.539 -0.633,3.68 -1.234,1.144 -2.617,0.644 -2.879,0.57 -0.261,-0.07 -1.121,-0.465 -1.195,-0.711 -0.074,-0.25 -0.074,-0.539 0.301,-0.5 0.371,0.035 1.715,0.25 2.465,-0.824 0.746,-1.07 0.633,-1.5 0.672,-1.82 0.035,-0.321 0,-1.321 -0.114,-1.575 -0.109,-0.25 0.039,-0.25 0.039,-0.25"
   id="path2278"
   style="fill:#061120;fill-rule:evenodd;stroke:none"
   inkscape:connector-curvature="0" />
        <path
   d="m 266.012,293.277 c -0.035,-0.308 0.074,-1.14 0.074,-1.14 0,0 0.449,-0.071 1.121,-0.035 0.672,0.035 1.422,-0.075 1.684,-0.289 0.261,-0.211 0.449,-0.426 0.297,-0.606 -0.149,-0.18 -1.325,-0.168 -1.821,-0.102 -0.422,0.055 -2.215,0.852 -2.402,1.102 -0.184,0.25 -0.43,0.211 -0.582,0.031 -0.149,-0.175 -1.957,-2.925 -2.18,-3.175 -0.226,-0.25 -0.238,-0.586 -0.015,-0.661 0.312,-0.105 0.648,0.137 0.875,-0.043 0.222,-0.179 -0.153,-0.652 0.593,-0.867 0.75,-0.215 0.864,-0.25 1.047,-0.07 0.188,0.176 1.094,1.73 1.16,1.859 0.071,0.129 0.047,0.278 -0.199,0.43 -0.246,0.148 -1.121,0.727 -1.121,0.727 0,0 0.223,0.128 0.539,0.066 0.313,-0.066 1.457,-0.602 1.547,-0.688 0.09,-0.086 0.066,-0.449 0.019,-0.535 -0.043,-0.086 -1.121,-1.972 -1.343,-2.207 -0.223,-0.238 -1.121,-1.394 -1.907,-1.543 -0.785,-0.152 -0.808,-0.023 -0.921,0.02 -0.11,0.043 -0.313,0.277 -0.739,0.32 -0.425,0.043 -10.07,-0.043 -10.07,-0.043 0,0 -0.359,-0.043 -0.516,-0.211 -0.156,-0.172 -0.25,-0.945 -0.293,-1.117 -0.046,-0.172 -0.449,-0.363 -0.629,-0.406 -0.179,-0.043 -0.785,-0.129 -1.097,-0.324 -0.317,-0.192 -0.832,-0.665 -0.832,-0.665 l -0.02,-2.269 c 0,0 0.199,-2.082 0.672,-3.625 0.469,-1.543 0.762,-3.301 1.168,-3.473 0.402,-0.172 0.625,-0.043 0.805,0.02 0.179,0.066 1.078,0.664 1.211,0.773 0.136,0.106 0.226,0.278 0.156,0.516 -0.066,0.234 -0.648,1.629 -0.852,2.25 -0.199,0.621 -0.539,1.887 -0.445,2.121 0.086,0.238 0.176,0.43 0.379,0.43 0.203,0 0.875,-0.621 1.031,-0.774 0.157,-0.148 1.211,-1.261 1.438,-1.261 0.222,0 0.426,0.019 0.426,0.019 l -0.047,2.809 c 0,0 -0.2,0.343 -1.278,0.793 -1.078,0.449 -2.738,0.687 -2.738,0.687 0,0 -0.133,0.344 0,0.387 0.137,0.043 2.336,0.32 3.301,-0.11 0.961,-0.429 0.871,-0.449 0.984,-0.597 0.113,-0.153 0.16,-1.254 0.227,-1.395 0.09,-0.195 0.066,-0.429 0.492,-0.367 0.426,0.066 0.402,0.281 0.852,0.301 0.449,0.023 1.503,0.086 1.683,0.023 0.18,-0.066 0.133,-0.129 0.27,-0.129 0.132,0 0.648,0.043 0.648,0.043 0,0 -0.133,0.473 -0.359,0.641 -0.223,0.172 -0.446,0.367 -0.535,0.582 -0.09,0.215 -0.137,1.027 -0.137,1.027 0,0 0.137,-0.32 0.539,-0.601 0.402,-0.278 0.762,-0.34 0.965,-0.621 0.203,-0.278 0.222,-0.387 0.156,-0.535 -0.066,-0.149 -0.402,-0.516 -0.449,-0.731 -0.043,-0.215 -0.203,-0.449 -0.114,-0.578 0.09,-0.129 1.461,-1.734 1.461,-1.734 0,0 0.223,-0.129 0.403,-0.086 0.179,0.043 1.277,1.8 2.265,2.355 0.989,0.559 1.121,1.051 3.231,1.309 2.109,0.258 3.273,0.172 3.273,0.172 0,0 0.246,0.086 0.114,0.191 -0.137,0.109 -1.414,0.859 -3.094,0.73 -1.684,-0.128 -2.492,-0.664 -2.738,-0.664 -0.247,0 -1.211,0.215 -1.614,0.559 -0.406,0.34 -1.234,1.219 -1.281,1.586 -0.043,0.363 0,0.387 0,0.387 0,0 0.18,0.062 0.359,-0.024 0.18,-0.086 0.383,-0.34 0.493,-0.34 0.113,0 1.211,-0.023 1.371,0.02 0.156,0.043 0.695,0.086 1.39,0.601 0.696,0.512 2.399,2.594 3.25,4.309 0.856,1.715 1.391,1.691 1.391,1.691 0,0 -0.289,-1.476 -0.492,-2.035 -0.203,-0.558 -0.449,-0.988 -0.426,-1.285 0.023,-0.301 0.269,-0.754 0.941,-1.16 0.672,-0.406 0.942,-0.344 0.965,-0.234 0.024,0.105 0.383,2.25 0.426,2.851 0.047,0.598 0.066,1.328 -0.043,1.672 -0.113,0.344 -0.359,0.578 -0.383,0.859 -0.023,0.278 -0.09,0.598 0.024,0.727 0.109,0.129 1.211,0.684 1.187,2.125 -0.023,1.348 -0.672,1.734 -0.672,1.734 0,0 -0.113,0.321 0,0.43 0.114,0.106 1.547,1.07 1.211,2.422 -0.336,1.351 -0.922,2.23 -2.332,2.273 -1.414,0.043 -2.289,-1.203 -2.242,-1.8 0.043,-0.602 0.535,-1.352 1.41,-1.352 0.875,0 0.629,0.449 1.301,0.406 0.676,-0.043 0.742,-0.578 0.719,-0.769 -0.024,-0.196 -0.403,-1.074 -0.875,-1.117 -0.469,-0.043 -1.524,-0.106 -1.524,-0.106 0,0 -0.676,-0.152 -1.101,-0.473 -0.426,-0.32 -0.965,-0.73 -0.965,-0.73 l 0.047,-0.32 c 0,0 1.683,-0.364 1.66,-0.578 -0.024,-0.215 -0.113,-0.278 -0.406,-0.364 -0.289,-0.086 -1.387,-0.109 -1.422,-0.422 z m -9.633,-9.828 1.457,0.11 c 0,0 0.402,0.492 0.941,0.707 0.539,0.214 1.211,0.64 1.211,0.64 0,0 -1.234,0.215 -2.265,-0.383 -1.032,-0.601 -1.344,-1.074 -1.344,-1.074 z m 5.672,-2.359 c 0,0 0.047,-0.172 -0.09,-0.277 -0.133,-0.11 -0.762,-0.688 -1.008,-0.708 -0.246,-0.023 -0.582,0.364 -0.558,0.559 0.019,0.191 0.085,0.449 0.085,0.449 l 1.571,-0.023"
   id="path2280"
   style="fill:#061120;fill-rule:evenodd;stroke:none"
   inkscape:connector-curvature="0" />
        <path
   d="m 268.578,282.633 c 0,0 0.047,0.344 0,0.43 -0.043,0.085 -1.703,1.546 -2.039,1.8 -0.336,0.258 -0.449,0.282 -0.762,0.11 -0.316,-0.172 -1.168,-0.922 -1.55,-1.051 -0.379,-0.129 -1.301,-0.32 -2.11,-0.258 -0.804,0.063 -0.648,-0.363 -0.445,-0.516 0.191,-0.14 0.629,-0.621 1.141,-0.597 0.519,0.019 1.91,-0.043 2.019,0 0.113,0.043 1.684,0.406 2.109,0.383 0.426,-0.02 1.637,-0.301 1.637,-0.301"
   id="path2282"
   style="fill:#061120;fill-rule:evenodd;stroke:none"
   inkscape:connector-curvature="0" />
        <path
   d="m 267.684,286.129 15.406,-12.348 c 0,0 0.406,-0.301 0.16,-0.664 -0.25,-0.367 -0.629,-0.109 -0.629,-0.109 l -15.769,12.305 c 0,0 -0.379,0.496 -0.043,0.773 0.336,0.277 0.875,0.043 0.875,0.043"
   id="path2284"
   style="fill:#061120;fill-rule:evenodd;stroke:none"
   inkscape:connector-curvature="0" />
        <path
   d="m 281.094,264.863 c 0,0 -2.891,-0.195 -4.664,2.035 -1.774,2.231 -1.817,2.723 -1.817,2.723 0,0 -0.425,1.18 -0.383,1.5 0.047,0.32 0.965,1.457 0.899,3.215 -0.066,1.758 -1.402,3.769 -2.176,4.633 -0.672,0.75 -2.512,1.929 -4.238,1.992 -1.727,0.066 -3.027,-0.813 -3.098,-0.922 -0.066,-0.105 -0.289,-0.297 -0.199,-0.426 0.09,-0.129 0.176,-0.258 0.312,-0.238 0.133,0.023 1.973,0.043 2.512,-0.793 0.539,-0.836 0.785,-1.586 0.742,-1.844 -0.046,-0.258 -0.089,-0.429 -0.246,-0.472 -0.16,-0.039 -1.593,-0.77 -2.043,-1.672 -0.449,-0.899 -0.742,-1.93 -0.808,-2.078 -0.067,-0.153 -0.09,-0.493 -0.336,-0.453 -0.246,0.046 -0.852,1.503 -0.965,2.105 -0.113,0.598 -0.402,1.629 -0.203,2.742 0.203,1.113 0.676,1.567 0.562,1.758 -0.113,0.195 -0.09,0.363 -0.402,0.344 -0.316,-0.024 -0.965,-1.157 -1.055,-1.328 -0.09,-0.172 -0.472,-1.18 -0.515,-1.332 -0.047,-0.149 -0.114,-0.235 -0.246,-0.192 -0.137,0.043 -1.211,1.199 -1.211,1.199 l -0.317,0.043 0,-0.468 c 0,0 1.031,-2.446 1.301,-3.496 0.27,-1.051 0.742,-2.833 0.742,-2.918 0,-0.086 0.02,-0.34 0.18,-0.387 0.156,-0.039 1.859,-0.449 2.801,-1.133 0.945,-0.687 1.75,-1.266 1.996,-1.59 0.25,-0.32 0.269,-0.578 -0.11,-0.707 -0.382,-0.125 -1.39,-0.234 -1.773,-0.43 -0.383,-0.191 -0.539,-0.234 -0.695,-0.168 -0.157,0.063 -2.039,1.993 -2.469,2.465 -0.426,0.473 -1.008,1.543 -1.211,2.274 -0.199,0.726 -0.559,3.195 -0.785,3.73 -0.223,0.535 -0.625,1.52 -1.055,1.973 -0.426,0.449 -1.68,1.137 -1.68,1.137 l 0,1.605 c 0,0 0.18,0.043 0.09,0.172 -0.09,0.129 -0.562,0.43 -0.941,0.516 -0.383,0.086 -1.414,-0.043 -1.84,-0.196 -0.426,-0.148 -0.719,-0.211 -0.742,-0.383 -0.024,-0.171 0.203,-2.636 0.18,-2.746 -0.024,-0.105 0,-0.32 -0.204,-0.32 -0.199,0 -1.859,0.43 -1.949,0.406 -0.09,-0.019 -0.18,-0.234 -0.023,-0.386 0.16,-0.149 1.437,-1.758 1.437,-1.758 0,0 0.133,-0.106 0.289,-0.043 0.157,0.066 0.246,0.496 0.36,0.453 0.113,-0.043 0.425,-0.774 0.496,-1.074 0.066,-0.301 0.043,-0.77 0.179,-0.836 0.133,-0.063 1.075,-0.063 1.075,-0.063 0,0 0.047,-0.582 0.293,-0.84 0.246,-0.253 0.804,-0.468 1.121,-0.211 0.312,0.254 0.312,0.922 0.066,1.18 -0.246,0.254 -0.851,0.34 -0.851,0.34 0,0 0.293,1.031 0.336,1.395 0.046,0.363 0.179,1.457 0.179,1.457 0,0 0.043,0.043 0.203,0.023 0.157,-0.023 0.805,-0.578 0.918,-1.199 0.114,-0.625 0.742,-2.188 0.582,-3.778 -0.156,-1.585 -0.246,-1.796 -0.312,-1.929 -0.067,-0.129 -0.516,-0.793 -1.188,-1.219 -0.675,-0.43 -2.242,-1.223 -3.949,-2.703 -1.703,-1.481 -3.183,-3.496 -3.453,-4.203 -0.27,-0.707 -0.137,-0.641 -0.137,-0.641 0,0 0.426,-0.152 0.563,-0.152 0.133,0 3.297,-0.02 3.297,-0.02 0,0 0.269,0.086 0.312,0.192 0.047,0.105 0.899,2.164 3.41,3.109 2.512,0.941 3.344,1.07 3.903,1.051 0.562,-0.02 0.605,0.062 0.742,-0.02 0.133,-0.09 0.851,-2.058 1.48,-2.125 0.629,-0.062 0.942,-0.277 1.5,0.086 0.563,0.364 1.192,1.5 1.864,1.973 0.671,0.469 1.234,1.094 1.906,1.094 0.676,0 0.492,-0.215 0.605,-0.364 0.114,-0.152 0.383,-0.922 0.766,-1.265 0.379,-0.344 1.297,-0.879 1.297,-0.879 l 1.887,0 0,0.43 c 0,0 -1.055,0.726 -1.547,1.8 -0.496,1.071 -0.629,1.95 -0.676,2.809 -0.043,0.855 0,1.949 -0.199,2.508 -0.203,0.554 -0.743,1.304 -1.032,1.476 -0.293,0.172 -0.718,0.367 -0.718,0.367 0,0 -0.157,0.235 0.269,0.493 0.426,0.257 1.278,0.257 1.57,0.129 0.29,-0.129 0.805,-0.579 0.918,-0.946 0.114,-0.363 0.247,-1.562 0.114,-2.058 -0.137,-0.493 -0.875,-3.063 0.605,-4.481 1.481,-1.414 3.141,-1.93 3.699,-2.058 0.563,-0.125 2.247,-0.149 2.739,0.023 0.492,0.172 1.187,0.645 1.187,0.645 l -0.023,0.343 z m -9.129,10.762 c 0,0 -2.309,0.234 -2.578,-1.051 -0.309,-1.476 -0.223,-1.801 -0.133,-2.039 0.086,-0.234 0.672,-0.555 0.785,-0.965 0.109,-0.406 0.066,-3.191 0.066,-3.191 l -0.113,-1.762 c 0,0 -0.246,-0.234 -0.469,-0.105 -0.226,0.129 -0.609,0.492 -0.785,1.543 -0.179,1.05 -0.652,3.754 -0.539,4.781 0.11,1.031 0.469,2.637 1.055,3.023 0.582,0.387 1.008,0.536 1.391,0.516 0.378,-0.023 1.367,-0.516 1.367,-0.516 l -0.137,-0.257 0.09,0.023 z m -18.93,-13.488 0.043,0.515 c 0,0 1.504,2.059 3.703,3.258 2.199,1.203 3.231,1.567 3.231,1.567 0,0 1.031,0.429 1.234,-0.172 0.199,-0.602 -0.16,-0.641 -0.766,-0.813 -0.605,-0.172 -2.734,-0.859 -3.855,-1.887 -1.121,-1.031 -2.312,-2.468 -2.312,-2.468 l -1.278,0"
   id="path2286"
   style="fill:#061120;fill-rule:evenodd;stroke:none"
   inkscape:connector-curvature="0" />
        <path
   d="m 211.816,188.051 c -0.125,-0.481 -0.363,-1.067 -0.836,-1.188 -0.593,-0.234 -1.066,0.239 -1.187,0.707 0.121,0.598 0.238,1.188 0.836,1.426 0.711,0.234 1.187,-0.473 1.187,-0.945"
   id="path2288"
   style="fill:#061120;fill-rule:evenodd;stroke:none"
   inkscape:connector-curvature="0" />
        <path
   d="m 279.488,190.082 c -1.422,-4.855 -3.316,-9.832 -4.855,-14.562 -0.235,-0.473 0.113,-1.184 0.828,-1.184 0.234,0 0.59,0 0.711,-0.359 l -0.234,-0.239 -5.45,0 -0.238,0.239 c 0.836,0.359 2.133,0.707 2.605,1.902 1.297,4.141 3.196,8.281 4.028,12.664 -0.36,0.828 -1.422,-0.23 -1.656,0.469 1.414,0.359 2.839,0.711 4.261,1.07"
   id="path2290"
   style="fill:#061120;fill-rule:evenodd;stroke:none"
   inkscape:connector-curvature="0" />
        <path
   d="m 251.426,189.961 c -1.656,-4.969 -3.434,-9.828 -4.977,-14.797 -0.117,-0.48 0.477,-0.957 0.836,-1.066 l 0.59,0 0,-0.36 c -1.902,-0.113 -4.027,-0.234 -5.805,0 0.356,0.598 1.301,0.469 1.895,0.946 2.008,4.148 3.32,8.882 4.855,13.386 0,0.352 -0.359,0.59 -0.711,0.59 -0.351,0 -0.824,-0.117 -1.066,0.117 1.301,0.594 2.961,0.84 4.383,1.184"
   id="path2292"
   style="fill:#061120;fill-rule:evenodd;stroke:none"
   inkscape:connector-curvature="0" />
        <path
   d="m 262.559,189.492 c -3.321,-5.215 -6.161,-11.015 -9.473,-15.988 -0.238,0.121 -0.594,0.121 -0.715,0.473 2.254,4.5 5.332,9.113 7.817,13.734 l -0.477,0.359 c -2.363,0.11 -4.852,0.11 -6.035,-1.894 l -0.117,0.117 1.773,3.324 c 2.25,0.344 4.621,0.106 6.992,0.227 l 0.235,-0.352"
   id="path2294"
   style="fill:#061120;fill-rule:evenodd;stroke:none"
   inkscape:connector-curvature="0" />
        <path
   d="m 231.293,182.863 c 0.121,-0.715 -0.117,-1.425 -0.824,-1.308 -1.184,0 -0.117,1.308 -1.184,1.535 -2.488,0 -3.668,-2.84 -4.265,-4.735 -0.352,-1.179 -0.469,-2.718 0.355,-3.546 0.594,-0.602 1.656,-0.473 2.484,-0.125 0.243,0.238 0.598,0.597 0.95,0.48 -0.118,-0.59 -0.594,-1.305 -1.297,-1.781 -1.074,-0.352 -2.614,-0.707 -3.559,0.121 -0.945,1.18 -1.18,2.375 -0.828,4.144 0.359,2.602 2.371,5.094 4.855,6.036 1.067,0.242 2.723,0.367 3.313,-0.821"
   id="path2296"
   style="fill:#061120;fill-rule:evenodd;stroke:none"
   inkscape:connector-curvature="0" />
        <path
   d="m 210.574,182.863 c -0.828,-2.613 -2.129,-5.332 -2.953,-7.699 0,-0.242 0.113,-0.59 0.469,-0.48 0.945,0.48 1.543,1.195 2.25,1.898 l 0.234,-0.355 c -1.183,-1.418 -2.484,-3.438 -4.613,-3.079 l -0.356,0.829 c 0.708,2.605 2.372,4.972 3.075,7.933 -0.235,0.356 -0.703,0.117 -0.946,-0.117 -0.234,-0.238 -0.468,-0.477 -0.828,-0.477 l -0.121,0.122 c 0.598,0.953 1.539,2.015 2.727,2.246 0.59,0.121 1.183,-0.231 1.062,-0.821"
   id="path2298"
   style="fill:#061120;fill-rule:evenodd;stroke:none"
   inkscape:connector-curvature="0" />
        <path
   d="m 216.141,182.863 c 0,-0.953 -0.59,-1.781 -0.356,-2.488 1.66,1.418 3.195,3.902 5.68,3.191 0.715,-0.586 0.48,-1.773 0.125,-2.484 -0.836,-1.894 -1.781,-4.027 -2.488,-5.562 0.949,-1.313 1.652,0.707 2.601,0.945 0.242,-0.711 -0.59,-1.184 -1.183,-1.781 -0.829,-0.825 -2.008,-1.653 -3.075,-1.414 l -0.355,0.589 c 0.828,2.368 2.129,4.852 3.316,7.696 0.114,0.593 -0.238,1.187 -0.953,1.066 -2.363,-1.305 -3.902,-4.144 -5.082,-6.156 -0.594,-1.067 -0.953,-2.727 -2.016,-3.434 -0.359,0.117 -0.832,0.473 -0.714,0.828 0.949,2.133 2.609,4.739 3.086,7.696 -0.356,0.836 -0.95,-0.117 -1.422,-0.239 -0.125,-0.234 -0.36,-0.589 -0.59,-0.589 0.23,1.066 1.062,2.363 2.125,2.957 0.711,0.242 1.301,-0.231 1.301,-0.821"
   id="path2300"
   style="fill:#061120;fill-rule:evenodd;stroke:none"
   inkscape:connector-curvature="0" />
        <path
   d="m 205.605,182.742 c 0,-0.476 -0.238,-0.949 -0.714,-0.949 -0.828,0 -1.301,1.66 -2.364,0.703 -1.656,-1.769 0.828,-3.547 1.536,-5.199 0.238,-1.418 -0.473,-2.25 -1.422,-3.438 -0.942,-0.711 -2.481,-1.418 -3.547,-0.589 -0.594,0.355 -0.594,1.066 -0.239,1.414 1.18,0.953 1.657,-1.536 3.083,-0.477 2.835,2.492 -3.083,4.27 -0.954,7.348 0.598,0.836 1.305,1.898 2.371,2.129 0.825,0 2.133,0.121 2.25,-0.942"
   id="path2302"
   style="fill:#061120;fill-rule:evenodd;stroke:none"
   inkscape:connector-curvature="0" />
        <path
   d="m 272.266,189.723 c -2.965,-0.711 -5.325,-3.082 -6.746,-5.672 1.293,0.347 2.96,0.461 3.902,-0.719 0.949,-1.305 0.828,-3.082 0.476,-4.621 -0.597,-2.129 -2.015,-3.789 -3.914,-4.973 -0.945,-0.468 -2.48,-0.468 -3.308,0.239 -1.899,2.015 -1.899,3.554 -1.301,6.156 1.184,4.742 5.68,9.59 10.77,9.949 0.121,0 0.121,-0.238 0.121,-0.359 z m -5.922,-6.391 c -0.711,-0.121 -1.305,-0.352 -1.895,-0.836 -1.062,-2.363 -2.719,-5.797 -0.711,-8.047 0.594,-0.351 1.539,-0.113 2.137,0.36 1.539,2.007 2.605,4.617 2.129,7.218 -0.359,0.594 -0.832,1.305 -1.66,1.305"
   id="path2304"
   style="fill:#061120;fill-rule:evenodd;stroke:none"
   inkscape:connector-curvature="0" />
        <path
   d="m 238.637,182.742 c 0,-0.832 0,-1.89 -0.832,-2.609 -1.422,-1.184 -3.309,-1.656 -5.203,-1.778 -0.715,-1.179 -0.598,-2.128 -0.122,-3.308 0.594,-0.84 2.016,-0.84 2.848,-0.238 0.465,0.113 0.824,0.945 1.176,0.589 -0.473,-1.66 -2.25,-2.25 -3.785,-2.367 -0.953,0.117 -2.016,0.594 -2.25,1.543 -0.473,2.602 0.707,5.559 2.488,7.692 1.422,1.66 4.496,2.488 5.68,0.476 z m -2.606,0.469 c -1.777,-0.59 -2.601,-2.484 -3.074,-3.906 0.473,-0.356 1.422,0 2.012,0.121 1.183,0.469 2.133,1.656 2.133,2.965 0,0.472 -0.598,0.82 -1.071,0.82"
   id="path2306"
   style="fill:#061120;fill-rule:evenodd;stroke:none"
   inkscape:connector-curvature="0" />
      </g>
    </g>
  </g></svg>